<svg width="293" height="122" viewBox="0 0 293 122" fill="none" xmlns="http://www.w3.org/2000/svg">
<path d="M4.37299 0H0V83.1072H4.37299V0Z" fill="#FF0000"/>
<path d="M8.74652 0H6.55981V83.1072H8.74652V0Z" fill="#FF0000"/>
<path d="M15.3061 0H13.1194V83.1072H15.3061V0Z" fill="#FF0000"/>
<path d="M28.4253 0H24.0522V83.1072H28.4253V0Z" fill="#FF0000"/>
<path d="M37.1715 0H30.6118V83.1072H37.1715V0Z" fill="#FF0000"/>
<path d="M41.5448 0H39.3582V83.1072H41.5448V0Z" fill="#FF0000"/>
<path d="M54.6639 0H48.1042V83.1072H54.6639V0Z" fill="#FF0000"/>
<path d="M63.4105 0H56.8508V83.1072H63.4105V0Z" fill="#FF0000"/>
<path d="M69.9699 0H65.5969V83.1072H69.9699V0Z" fill="#FF0000"/>
<path d="M74.3432 0H72.1565V83.1072H74.3432V0Z" fill="#FF0000"/>
<path d="M85.2761 0H80.9031V83.1072H85.2761V0Z" fill="#FF0000"/>
<path d="M89.6497 0H87.4629V83.1072H89.6497V0Z" fill="#FF0000"/>
<path d="M98.3954 0H96.2087V83.1072H98.3954V0Z" fill="#FF0000"/>
<path d="M109.328 0H104.955V83.1072H109.328V0Z" fill="#FF0000"/>
<path d="M113.701 0H111.515V83.1072H113.701V0Z" fill="#FF0000"/>
<path d="M122.448 0H120.261V83.1072H122.448V0Z" fill="#FF0000"/>
<path d="M129.007 0H124.634V83.1072H129.007V0Z" fill="#FF0000"/>
<path d="M137.754 0H135.567V83.1072H137.754V0Z" fill="#FF0000"/>
<path d="M150.873 0H144.313V83.1072H150.873V0Z" fill="#FF0000"/>
<path d="M159.62 0H153.06V83.1072H159.62V0Z" fill="#FF0000"/>
<path d="M166.179 0H161.806V83.1072H166.179V0Z" fill="#FF0000"/>
<path d="M170.552 0H168.366V83.1072H170.552V0Z" fill="#FF0000"/>
<path d="M183.672 0H177.112V83.1072H183.672V0Z" fill="#FF0000"/>
<path d="M190.231 0H185.858V83.1072H190.231V0Z" fill="#FF0000"/>
<path d="M196.791 0H192.418V83.1072H196.791V0Z" fill="#FF0000"/>
<path d="M205.537 0H198.978V83.1072H205.537V0Z" fill="#FF0000"/>
<path d="M209.91 0H207.724V83.1072H209.91V0Z" fill="#FF0000"/>
<path d="M220.843 0H216.47V83.1072H220.843V0Z" fill="#FF0000"/>
<path d="M229.589 0H223.03V83.1072H229.589V0Z" fill="#FF0000"/>
<path d="M238.336 0H236.149V83.1072H238.336V0Z" fill="#FF0000"/>
<path d="M244.896 0H240.522V83.1072H244.896V0Z" fill="#FF0000"/>
<path d="M251.455 0H249.269V83.1072H251.455V0Z" fill="#FF0000"/>
<path d="M262.388 0H255.828V83.1072H262.388V0Z" fill="#FF0000"/>
<path d="M268.948 0H264.575V83.1072H268.948V0Z" fill="#FF0000"/>
<path d="M282.067 0H275.507V83.1072H282.067V0Z" fill="#FF0000"/>
<path d="M286.44 0H284.254V83.1072H286.44V0Z" fill="#FF0000"/>
<path d="M293 0H288.627V83.1072H293V0Z" fill="#FF0000"/>
<path d="M89.9794 98.4319C89.8801 97.5957 89.477 96.9465 88.7703 96.4844C88.0635 96.0223 87.1966 95.7912 86.1696 95.7912C85.4187 95.7912 84.7615 95.9122 84.1984 96.1543C83.6407 96.3964 83.2045 96.7292 82.8897 97.1528C82.5805 97.5765 82.4259 98.0578 82.4259 98.5969C82.4259 99.0481 82.5336 99.4359 82.749 99.7605C82.9699 100.08 83.2514 100.346 83.5938 100.561C83.9361 100.77 84.295 100.943 84.6705 101.081C85.0459 101.213 85.391 101.32 85.7058 101.403L87.4285 101.865C87.8703 101.98 88.3617 102.14 88.9028 102.343C89.4494 102.547 89.9712 102.825 90.4681 103.177C90.9706 103.523 91.3848 103.969 91.7105 104.514C92.0362 105.058 92.1991 105.727 92.1991 106.519C92.1991 107.432 91.9589 108.257 91.4786 108.995C91.0037 109.731 90.308 110.317 89.3915 110.752C88.4803 111.187 87.3733 111.405 86.0702 111.405C84.8554 111.405 83.8036 111.208 82.9146 110.818C82.0312 110.427 81.3354 109.883 80.8275 109.185C80.325 108.486 80.0406 107.674 79.9744 106.75H82.0947C82.1499 107.388 82.3652 107.916 82.7407 108.334C83.1217 108.747 83.6021 109.055 84.1819 109.259C84.7671 109.457 85.3966 109.556 86.0702 109.556C86.8543 109.556 87.5583 109.43 88.1822 109.176C88.8061 108.918 89.3003 108.56 89.6648 108.103C90.0292 107.641 90.2114 107.102 90.2114 106.486C90.2114 105.925 90.054 105.468 89.7392 105.116C89.4246 104.764 89.0105 104.478 88.497 104.258C87.9834 104.038 87.4285 103.845 86.8322 103.68L84.745 103.086C83.4199 102.706 82.3707 102.165 81.5977 101.46C80.8247 100.756 80.4381 99.8348 80.4381 98.6959C80.4381 97.7498 80.695 96.9245 81.2085 96.2203C81.7275 95.5106 82.4232 94.9605 83.2957 94.5699C84.1736 94.1739 85.1536 93.9757 86.2358 93.9757C87.3291 93.9757 88.3009 94.171 89.1513 94.5616C90.0015 94.9468 90.6752 95.4749 91.1721 96.1461C91.6746 96.8172 91.9397 97.5792 91.9673 98.4319H89.9794ZM95.5763 111.107V94.2069H101.308C102.638 94.2069 103.726 94.4462 104.571 94.9248C105.421 95.3979 106.051 96.0388 106.459 96.8475C106.868 97.6562 107.072 98.5584 107.072 99.5542C107.072 100.55 106.868 101.455 106.459 102.269C106.056 103.083 105.432 103.733 104.588 104.217C103.743 104.695 102.661 104.935 101.341 104.935H97.2328V103.119H101.275C102.186 103.119 102.917 102.962 103.469 102.649C104.022 102.335 104.422 101.911 104.67 101.378C104.924 100.839 105.051 100.231 105.051 99.5542C105.051 98.8775 104.924 98.2724 104.67 97.7388C104.422 97.2051 104.019 96.7869 103.461 96.4844C102.903 96.1763 102.164 96.0223 101.241 96.0223H97.6304V111.107H95.5763ZM110.381 111.107V94.2069H120.618V96.0223H112.435V101.733H120.088V103.548H112.435V109.291H120.751V111.107H110.381ZM124.321 111.107V94.2069H134.557V96.0223H126.375V101.733H134.027V103.548H126.375V109.291H134.69V111.107H124.321ZM143.495 111.107H138.26V94.2069H143.726C145.372 94.2069 146.78 94.5452 147.95 95.2219C149.121 95.893 150.018 96.8585 150.641 98.1184C151.266 99.3727 151.577 100.874 151.577 102.624C151.577 104.384 151.263 105.9 150.634 107.171C150.004 108.436 149.088 109.41 147.884 110.092C146.68 110.768 145.217 111.107 143.495 111.107ZM140.313 109.291H143.361C144.764 109.291 145.926 109.022 146.849 108.483C147.77 107.944 148.458 107.176 148.911 106.181C149.363 105.185 149.59 103.999 149.59 102.624C149.59 101.26 149.367 100.085 148.919 99.1004C148.472 98.1101 147.803 97.3509 146.914 96.8228C146.026 96.2891 144.919 96.0223 143.593 96.0223H140.313V109.291ZM155.023 111.107V94.2069H160.754C162.085 94.2069 163.173 94.4462 164.018 94.9248C164.868 95.3979 165.498 96.0388 165.906 96.8475C166.315 97.6562 166.519 98.5584 166.519 99.5542C166.519 100.55 166.315 101.455 165.906 102.269C165.503 103.083 164.879 103.733 164.034 104.217C163.19 104.695 162.108 104.935 160.788 104.935H156.68V103.119H160.721C161.632 103.119 162.364 102.962 162.917 102.649C163.469 102.335 163.869 101.911 164.117 101.378C164.371 100.839 164.498 100.231 164.498 99.5542C164.498 98.8775 164.371 98.2724 164.117 97.7388C163.869 97.2051 163.466 96.7869 162.908 96.4844C162.35 96.1763 161.61 96.0223 160.689 96.0223H157.078V111.107H155.023ZM184.14 102.657C184.14 104.439 183.817 105.98 183.171 107.278C182.525 108.576 181.638 109.578 180.512 110.281C179.386 110.986 178.099 111.338 176.653 111.338C175.206 111.338 173.92 110.986 172.793 110.281C171.666 109.578 170.781 108.576 170.135 107.278C169.488 105.98 169.165 104.439 169.165 102.657C169.165 100.874 169.488 99.3341 170.135 98.0358C170.781 96.7375 171.666 95.7362 172.793 95.032C173.92 94.3279 175.206 93.9757 176.653 93.9757C178.099 93.9757 179.386 94.3279 180.512 95.032C181.638 95.7362 182.525 96.7375 183.171 98.0358C183.817 99.3341 184.14 100.874 184.14 102.657ZM182.152 102.657C182.152 101.194 181.906 99.9585 181.415 98.9518C180.929 97.9451 180.269 97.1831 179.435 96.6659C178.608 96.1488 177.679 95.8902 176.653 95.8902C175.625 95.8902 174.695 96.1488 173.862 96.6659C173.033 97.1831 172.374 97.9451 171.882 98.9518C171.396 99.9585 171.154 101.194 171.154 102.657C171.154 104.12 171.396 105.355 171.882 106.362C172.374 107.369 173.033 108.131 173.862 108.648C174.695 109.165 175.625 109.424 176.653 109.424C177.679 109.424 178.608 109.165 179.435 108.648C180.269 108.131 180.929 107.369 181.415 106.362C181.906 105.355 182.152 104.12 182.152 102.657ZM196.87 98.4319C196.77 97.5957 196.368 96.9465 195.661 96.4844C194.954 96.0223 194.087 95.7912 193.06 95.7912C192.309 95.7912 191.652 95.9122 191.089 96.1543C190.531 96.3964 190.095 96.7292 189.78 97.1528C189.47 97.5765 189.316 98.0578 189.316 98.5969C189.316 99.0481 189.425 99.4359 189.64 99.7605C189.861 100.08 190.142 100.346 190.484 100.561C190.826 100.77 191.186 100.943 191.561 101.081C191.937 101.213 192.281 101.32 192.596 101.403L194.319 101.865C194.761 101.98 195.252 102.14 195.793 102.343C196.34 102.547 196.862 102.825 197.358 103.177C197.861 103.523 198.275 103.969 198.6 104.514C198.926 105.058 199.089 105.727 199.089 106.519C199.089 107.432 198.85 108.257 198.369 108.995C197.894 109.731 197.199 110.317 196.282 110.752C195.371 111.187 194.263 111.405 192.96 111.405C191.746 111.405 190.694 111.208 189.805 110.818C188.922 110.427 188.226 109.883 187.718 109.185C187.215 108.486 186.931 107.674 186.865 106.75H188.985C189.041 107.388 189.256 107.916 189.631 108.334C190.012 108.747 190.493 109.055 191.072 109.259C191.657 109.457 192.287 109.556 192.96 109.556C193.745 109.556 194.448 109.43 195.072 109.176C195.697 108.918 196.191 108.56 196.555 108.103C196.92 107.641 197.102 107.102 197.102 106.486C197.102 105.925 196.944 105.468 196.629 105.116C196.315 104.764 195.901 104.478 195.387 104.258C194.873 104.038 194.319 103.845 193.722 103.68L191.635 103.086C190.31 102.706 189.262 102.165 188.488 101.46C187.715 100.756 187.329 99.8348 187.329 98.6959C187.329 97.7498 187.586 96.9245 188.098 96.2203C188.618 95.5106 189.314 94.9605 190.187 94.5699C191.064 94.1739 192.044 93.9757 193.126 93.9757C194.22 93.9757 195.192 94.171 196.042 94.5616C196.892 94.9468 197.565 95.4749 198.063 96.1461C198.565 96.8172 198.83 97.5792 198.857 98.4319H196.87ZM201.539 96.0223V94.2069H214.261V96.0223H208.927V111.107H206.873V96.0223H201.539Z" fill="#FF0000"/>
</svg>
